<svg width="15" height="14" viewBox="0 0 15 14" fill="none" xmlns="http://www.w3.org/2000/svg">
<path fill-rule="evenodd" clip-rule="evenodd" d="M7.49998 0C6.00589 0 4.79469 1.2112 4.79469 2.70529C4.79469 3.47425 5.11552 4.16829 5.63062 4.66082L3.44532 8.40709C2.76621 8.21414 2.01278 8.28557 1.3531 8.66644C0.0591766 9.4135 -0.384153 11.068 0.362891 12.3619C1.10993 13.6559 2.76446 14.0992 4.05838 13.3522C4.72817 12.9655 5.17004 12.3356 5.33686 11.6385H9.6632C9.83004 12.3355 10.2719 12.9653 10.9416 13.3519C12.2356 14.0989 13.89 13.6556 14.6371 12.3617C15.3842 11.0678 14.9408 9.41325 13.6469 8.66618C12.9871 8.28532 12.2337 8.21389 11.5545 8.40684L9.36931 4.66083C9.88441 4.16829 10.2052 3.47425 10.2052 2.70529C10.2052 1.2112 8.99405 0 7.49998 0ZM5.33749 10.3798H9.66245C9.72179 10.1319 9.81745 9.88839 9.95143 9.65642C10.0909 9.41476 10.2621 9.20281 10.4566 9.02269L8.28254 5.29567C8.03477 5.3704 7.7721 5.41057 7.49998 5.41057C7.22786 5.41057 6.96518 5.3704 6.71742 5.29566L4.54325 9.02282C4.73785 9.20299 4.90905 9.41495 5.04858 9.65667C5.18247 9.88858 5.27812 10.1321 5.33749 10.3798Z" fill="#707385"/>
</svg>
