<svg width="36" height="36" viewBox="0 0 36 36" fill="none" xmlns="http://www.w3.org/2000/svg">
<path d="M7.33334 17.9997L22 3.33301H32.6667V13.9997L18 28.6663L7.33334 17.9997Z" fill="#4D0DCF"/>
<path fill-rule="evenodd" clip-rule="evenodd" d="M7.33345 10L3.33344 14L7.33345 18L15.3335 10H7.33345ZM23.7448 10.3697L21.0364 13.078L22.9221 14.9636L25.6304 12.2553L23.7448 10.3697ZM3.0573 23.0573L5.72396 20.3907L7.60958 22.2763L4.94291 24.9429L3.0573 23.0573ZM9.72396 24.3907L3.72396 30.3907L5.60958 32.2763L11.6096 26.2763L9.72396 24.3907ZM13.724 28.3905L11.0574 31.0572L12.943 32.9428L15.6096 30.2761L13.724 28.3905ZM22.0001 32.6667L26.0001 28.6667V20.6667L18.0001 28.6667L22.0001 32.6667Z" fill="#AFBCFA"/>
</svg>
