<svg width="14" height="14" viewBox="0 0 14 14" fill="none" xmlns="http://www.w3.org/2000/svg">
<path fill-rule="evenodd" clip-rule="evenodd" d="M8.87494 0.125L1.99993 7L6.99994 12L13.8749 5.125V0.125H8.87494ZM9.69281 3.42329L8.42331 4.69282L9.30719 5.5767L10.5767 4.30717L9.69281 3.42329ZM1.24556 8.12063L-0.00444189 9.37063L0.879444 10.2545L2.12944 9.0045L1.24556 8.12063ZM0.308056 12.8081L3.12056 9.99562L4.00444 10.8795L1.19194 13.692L0.308056 12.8081ZM3.74559 13.1206L4.99559 11.8706L5.8795 12.7544L4.62948 14.0044L3.74559 13.1206ZM1.6875 2.9375H4.29466L1.11608 6.11606L-0.1875 4.8125L1.6875 2.9375ZM9.1875 14.1875L7.88387 12.8839L11.0625 9.70519V12.3125L9.1875 14.1875Z" fill="#707385"/>
</svg>
