<svg width="36" height="36" viewBox="0 0 36 36" fill="none" xmlns="http://www.w3.org/2000/svg">
<g clip-path="url(#clip0_41_571)">
<path fill-rule="evenodd" clip-rule="evenodd" d="M22.6666 2C16.4074 2 11.3333 7.07411 11.3333 13.3333C11.3333 14.5709 11.5321 15.764 11.9001 16.8811L1.99976 26.7813L9.21871 34.0003L19.1191 24.1C20.2362 24.4679 21.4291 24.6667 22.6666 24.6667C28.9258 24.6667 34 19.5925 34 13.3333C34 11.7745 33.6845 10.286 33.1127 8.93076L32.3425 7.1052L25.4477 14H21.9999V10.5523L28.8947 3.65748L27.0691 2.88726C25.7139 2.31545 24.2254 2 22.6666 2Z" fill="#4D0DCF"/>
</g>
<defs>
<clipPath id="clip0_41_571">
<rect width="32" height="32" fill="white" transform="translate(2 2)"/>
</clipPath>
</defs>
</svg>
