<svg width="188" height="32" viewBox="0 0 188 32" fill="none" xmlns="http://www.w3.org/2000/svg">
<path d="M42.097 18.7289H46.2003V20.7054H39.5996V8.27588H42.097V18.7289Z" fill="#292B33"/>
<path d="M49.0718 20.2342C48.3107 19.8133 47.7133 19.2162 47.2789 18.4445C46.8444 17.6727 46.6279 16.7827 46.6279 15.773C46.6279 14.7634 46.8512 13.8741 47.297 13.1024C47.7427 12.3306 48.3522 11.7343 49.1253 11.3126C49.8985 10.8918 50.7606 10.6802 51.7117 10.6802C52.6629 10.6802 53.525 10.891 54.2981 11.3126C55.0713 11.7343 55.6807 12.3306 56.1265 13.1024C56.5723 13.8741 56.7955 14.7649 56.7955 15.773C56.7955 16.7812 56.5662 17.6727 56.1084 18.4445C55.6506 19.2162 55.0321 19.8125 54.2529 20.2342C53.4737 20.6558 52.6025 20.8667 51.6393 20.8667C50.6761 20.8667 49.8313 20.6558 49.0703 20.2342H49.0718ZM52.9163 18.3639C53.3146 18.144 53.6329 17.815 53.8705 17.3753C54.1081 16.9363 54.2272 16.4017 54.2272 15.7723C54.2272 14.8349 53.9806 14.1136 53.4873 13.6091C52.994 13.1046 52.3906 12.8524 51.677 12.8524C50.9635 12.8524 50.3661 13.1046 49.8841 13.6091C49.4021 14.1136 49.1615 14.8349 49.1615 15.7723C49.1615 16.7097 49.3961 17.4318 49.866 17.9362C50.3359 18.4407 50.9273 18.6929 51.6408 18.6929C52.0926 18.6929 52.5181 18.583 52.9163 18.3631V18.3639Z" fill="#292B33"/>
<path d="M58.4368 13.0933C58.8532 12.3276 59.4294 11.7343 60.1671 11.3126C60.904 10.8918 61.7488 10.6802 62.7 10.6802C63.9249 10.6802 64.9387 10.9859 65.7412 11.5973C66.5437 12.2086 67.0815 13.0662 67.3554 14.17H64.6618C64.5193 13.7424 64.2787 13.4073 63.9392 13.1641C63.6006 12.9209 63.1812 12.7989 62.6819 12.7989C61.9683 12.7989 61.4034 13.0572 60.987 13.5737C60.5707 14.0902 60.3625 14.8228 60.3625 15.773C60.3625 16.7232 60.5707 17.4378 60.987 17.9543C61.4034 18.4708 61.9683 18.7291 62.6819 18.7291C63.6926 18.7291 64.3526 18.2781 64.6618 17.376H67.3554C67.0815 18.4445 66.5407 19.293 65.7322 19.9225C64.9236 20.5519 63.9128 20.8667 62.6992 20.8667C61.7473 20.8667 60.9033 20.6558 60.1664 20.2342C59.4287 19.8133 58.8524 19.2192 58.4361 18.4535C58.0197 17.6878 57.8115 16.7948 57.8115 15.7738C57.8115 14.7528 58.0197 13.8598 58.4361 13.0941L58.4368 13.0933Z" fill="#292B33"/>
<path d="M68.6135 13.0843C69.0118 12.3125 69.5526 11.7192 70.2367 11.3036C70.9201 10.888 71.6841 10.6802 72.5289 10.6802C73.2659 10.6802 73.9115 10.8285 74.4644 11.1252C75.0173 11.4218 75.46 11.796 75.7934 12.247V10.8406H78.3089V20.7055H75.7934V19.2629C75.4721 19.726 75.0294 20.1084 74.4644 20.4111C73.8995 20.7138 73.2485 20.8651 72.5108 20.8651C71.6781 20.8651 70.9201 20.6513 70.2367 20.2244C69.5526 19.7967 69.0118 19.1944 68.6135 18.4174C68.2152 17.6403 68.0161 16.7466 68.0161 15.7376C68.0161 14.7287 68.2152 13.8561 68.6135 13.0843ZM75.4367 14.2152C75.1983 13.7823 74.8777 13.4495 74.4735 13.2183C74.0692 12.9872 73.6347 12.8712 73.1716 12.8712C72.7085 12.8712 72.2793 12.9842 71.8871 13.2093C71.4948 13.4352 71.1765 13.7642 70.9329 14.1979C70.6893 14.6316 70.5671 15.1451 70.5671 15.7384C70.5671 16.3317 70.6893 16.8512 70.9329 17.2962C71.1765 17.7412 71.4978 18.083 71.8961 18.3202C72.2944 18.5582 72.7198 18.6764 73.1716 18.6764C73.6234 18.6764 74.0692 18.5604 74.4735 18.3293C74.8777 18.0974 75.1983 17.7653 75.4367 17.3324C75.6743 16.8994 75.7934 16.3799 75.7934 15.7745C75.7934 15.1692 75.6743 14.6497 75.4367 14.2167V14.2152Z" fill="#292B33"/>
<path d="M83.0714 7.52832V20.7055H80.574V7.52832H83.0714Z" fill="#292B33"/>
<path d="M87.3082 20.3853C86.6127 20.0886 86.0621 19.661 85.6578 19.103C85.2535 18.5451 85.0453 17.8863 85.0333 17.1266H87.7087C87.7441 17.6371 87.9259 18.0406 88.2525 18.3373C88.5791 18.6339 89.0287 18.7823 89.5996 18.7823C90.1706 18.7823 90.6398 18.643 90.9732 18.3636C91.3058 18.0851 91.4725 17.7199 91.4725 17.2689C91.4725 16.9014 91.3594 16.598 91.1338 16.3608C90.9076 16.1237 90.6255 15.9362 90.2868 15.7999C89.9481 15.6636 89.4812 15.5123 88.8861 15.3459C88.0775 15.1087 87.4205 14.8738 86.9152 14.6426C86.4098 14.4115 85.9754 14.0614 85.6133 13.5923C85.2505 13.1232 85.0695 12.4975 85.0695 11.7137C85.0695 10.9781 85.2535 10.3366 85.6224 9.79071C85.9904 9.24483 86.5079 8.82619 87.1746 8.53556C87.8407 8.24493 88.6017 8.09961 89.4578 8.09961C90.7424 8.09961 91.7855 8.41133 92.5888 9.03476C93.3914 9.65819 93.8341 10.5278 93.9179 11.6437H91.1708C91.1467 11.216 90.9656 10.8629 90.627 10.5843C90.2883 10.3057 89.8387 10.1657 89.2798 10.1657C88.7918 10.1657 88.4026 10.2907 88.1115 10.5399C87.8196 10.7891 87.6747 11.1513 87.6747 11.6264C87.6747 11.9592 87.7849 12.2347 88.0051 12.4546C88.2254 12.6745 88.4984 12.8529 88.8258 12.9892C89.1524 13.1255 89.6132 13.2828 90.2083 13.4613C91.0169 13.6992 91.6769 13.9364 92.1883 14.1736C92.6997 14.4115 93.1394 14.7676 93.5083 15.242C93.8764 15.7171 94.0612 16.3397 94.0612 17.1115C94.0612 17.7764 93.8884 18.3938 93.5437 18.9637C93.1983 19.5337 92.6937 19.9877 92.0276 20.3258C91.3616 20.6639 90.5704 20.8333 89.6555 20.8333C88.7873 20.8333 88.0051 20.6849 87.3097 20.3883L87.3082 20.3853Z" fill="#292B33"/>
<path d="M98.9481 12.8884V17.6605C98.9481 17.9933 99.0281 18.2335 99.1887 18.3818C99.3494 18.5301 99.6194 18.6047 100 18.6047H101.16V20.7061H99.59C97.4848 20.7061 96.4326 19.6851 96.4326 17.6432V12.8884H95.2552V10.8404H96.4326V8.40088H98.9481V10.8404H101.16V12.8884H98.9481Z" fill="#292B33"/>
<path d="M102.738 13.0843C103.137 12.3125 103.677 11.7192 104.362 11.3036C105.045 10.888 105.809 10.6802 106.654 10.6802C107.391 10.6802 108.036 10.8285 108.589 11.1252C109.142 11.4218 109.585 11.796 109.918 12.247V10.8406H112.434V20.7055H109.918V19.2629C109.597 19.726 109.154 20.1084 108.589 20.4111C108.024 20.7138 107.373 20.8651 106.636 20.8651C105.803 20.8651 105.045 20.6513 104.362 20.2244C103.677 19.7967 103.137 19.1944 102.738 18.4174C102.34 17.6403 102.141 16.7466 102.141 15.7376C102.141 14.7287 102.34 13.8561 102.738 13.0843ZM109.562 14.2152C109.323 13.7823 109.003 13.4495 108.598 13.2183C108.194 12.9872 107.76 12.8712 107.296 12.8712C106.833 12.8712 106.404 12.9842 106.012 13.2093C105.62 13.4352 105.301 13.7642 105.058 14.1979C104.814 14.6316 104.692 15.1451 104.692 15.7384C104.692 16.3317 104.814 16.8512 105.058 17.2962C105.301 17.7412 105.623 18.083 106.021 18.3202C106.419 18.5582 106.845 18.6764 107.296 18.6764C107.748 18.6764 108.194 18.5604 108.598 18.3293C109.003 18.0974 109.323 17.7653 109.562 17.3324C109.799 16.8994 109.918 16.3799 109.918 15.7745C109.918 15.1692 109.799 14.6497 109.562 14.2167V14.2152Z" fill="#292B33"/>
<path d="M114.682 13.0933C115.098 12.3276 115.674 11.7343 116.412 11.3126C117.149 10.8918 117.994 10.6802 118.945 10.6802C120.17 10.6802 121.183 10.9859 121.986 11.5973C122.789 12.2086 123.326 13.0662 123.6 14.17H120.907C120.764 13.7424 120.523 13.4073 120.184 13.1641C119.845 12.9209 119.426 12.7989 118.927 12.7989C118.213 12.7989 117.648 13.0572 117.232 13.5737C116.815 14.0902 116.607 14.8228 116.607 15.773C116.607 16.7232 116.815 17.4378 117.232 17.9543C117.648 18.4708 118.213 18.7291 118.927 18.7291C119.937 18.7291 120.597 18.2781 120.907 17.376H123.6C123.326 18.4445 122.785 19.293 121.977 19.9225C121.168 20.5519 120.158 20.8667 118.944 20.8667C117.992 20.8667 117.148 20.6558 116.411 20.2342C115.673 19.8133 115.097 19.2192 114.681 18.4535C114.264 17.6878 114.056 16.7948 114.056 15.7738C114.056 14.7528 114.264 13.8598 114.681 13.0941L114.682 13.0933Z" fill="#292B33"/>
<path d="M130.754 20.7055L127.4 16.5033V20.7055H124.903V7.52832H127.4V15.0253L130.718 10.8405H133.965L129.612 15.791L134 20.7055H130.754Z" fill="#292B33"/>
<path d="M31.6043 0H19.3096C19.0597 0 18.8571 0.202261 18.8571 0.451762V12.7246C18.8571 12.9741 19.0597 13.1764 19.3096 13.1764H31.6043C31.8542 13.1764 32.0569 12.9741 32.0569 12.7246V0.451762C32.0569 0.202261 31.8542 0 31.6043 0Z" fill="url(#paint0_radial_100_537)"/>
<path d="M11.7669 20.7057H27.8329C28.0826 20.7057 28.2855 20.5032 28.2855 20.254V15.5105C28.2855 15.2612 28.0826 15.0587 27.8329 15.0587H17.424C17.1743 15.0587 16.9714 14.8562 16.9714 14.6069V4.21641C16.9714 3.96719 16.7685 3.76465 16.5188 3.76465H11.7669C11.5172 3.76465 11.3143 3.96719 11.3143 4.21641V20.254C11.3143 20.5032 11.5172 20.7057 11.7669 20.7057Z" fill="url(#paint1_linear_100_537)"/>
<path fill-rule="evenodd" clip-rule="evenodd" d="M9.42862 5.10557V13.7184C9.42862 13.939 9.24986 14.1175 9.02885 14.1175H0.40071C0.0446931 14.1175 -0.13407 13.6875 0.117858 13.4361L8.746 4.82322C8.99793 4.57173 9.42862 4.75018 9.42862 5.10557Z" fill="url(#paint2_linear_100_537)"/>
<path fill-rule="evenodd" clip-rule="evenodd" d="M17.9142 31.5998V22.9869C17.9142 22.7663 18.0929 22.5879 18.3139 22.5879H26.9421C27.2981 22.5879 27.4769 23.0178 27.2249 23.2693L18.5968 31.8821C18.3449 32.1336 17.9142 31.9552 17.9142 31.5998Z" fill="url(#paint3_linear_100_537)"/>
<path d="M183.682 20.8016C181.287 20.8016 179.638 19.6665 179.567 17.6978H181.447C181.518 18.6378 182.334 19.3118 183.7 19.3118C184.852 19.3118 185.615 18.8506 185.615 18.1234C185.615 17.1479 184.799 17.077 183.433 16.8996C181.376 16.6513 179.762 16.2079 179.762 14.3279C179.762 12.6075 181.287 11.5078 183.433 11.5078C185.65 11.5078 187.211 12.5365 187.335 14.3988H185.455C185.349 13.5652 184.586 12.9799 183.469 12.9799C182.369 12.9799 181.624 13.4411 181.624 14.1682C181.624 15.0196 182.493 15.126 183.788 15.2679C185.81 15.5162 187.495 15.9419 187.495 17.9638C187.495 19.702 185.863 20.8016 183.682 20.8016Z" fill="#4D0DCF"/>
<path d="M174.021 20.8016C171.29 20.8016 169.552 19.0102 169.552 16.1724C169.552 13.3701 171.343 11.5078 174.074 11.5078C176.398 11.5078 177.852 12.8026 178.207 14.86H176.203C175.954 13.7958 175.192 13.1395 174.039 13.1395C172.514 13.1395 171.503 14.3988 171.503 16.1724C171.503 17.9461 172.514 19.1699 174.039 19.1699C175.174 19.1699 175.954 18.4959 176.185 17.4495H178.207C177.87 19.5069 176.327 20.8016 174.021 20.8016Z" fill="#4D0DCF"/>
<path d="M163.417 20.8016C160.685 20.8016 158.841 18.9393 158.841 16.1547C158.841 13.3879 160.685 11.5078 163.417 11.5078C166.13 11.5078 167.993 13.3879 167.993 16.1547C167.993 18.9393 166.13 20.8016 163.417 20.8016ZM163.417 19.1699C164.977 19.1699 166.024 17.9106 166.024 16.1547C166.024 14.3988 164.977 13.1395 163.417 13.1395C161.838 13.1395 160.792 14.3988 160.792 16.1547C160.792 17.9106 161.838 19.1699 163.417 19.1699Z" fill="#4D0DCF"/>
<path d="M151.526 20.6952H147.5V8.27979H151.526C155.18 8.27979 157.273 10.7451 157.273 14.4697C157.273 18.2121 155.18 20.6952 151.526 20.6952ZM149.54 10.0534V18.9215H151.526C154.027 18.9215 155.198 17.2011 155.198 14.4697C155.198 11.7561 154.027 10.0534 151.526 10.0534H149.54Z" fill="#4D0DCF"/>
<path d="M141 27L140 27L140 3L141 3L141 27Z" fill="#4D0DCF"/>
<defs>
<radialGradient id="paint0_radial_100_537" cx="0" cy="0" r="1" gradientUnits="userSpaceOnUse" gradientTransform="translate(16.4464 15.5143) scale(28.6473 28.5965)">
<stop offset="0.07" stop-color="#1B58F4"/>
<stop offset="0.71" stop-color="#74FFE6"/>
</radialGradient>
<linearGradient id="paint1_linear_100_537" x1="35.2663" y1="-2.8228" x2="10.3988" y2="21.4742" gradientUnits="userSpaceOnUse">
<stop offset="0.32" stop-color="#4979F6"/>
<stop offset="0.99" stop-color="#4D33BD"/>
</linearGradient>
<linearGradient id="paint2_linear_100_537" x1="11.7631" y1="6.68222" x2="1.6316" y2="16.8325" gradientUnits="userSpaceOnUse">
<stop offset="0.22" stop-color="#4D29B4"/>
<stop offset="0.36" stop-color="#4C33BC"/>
<stop offset="0.58" stop-color="#4B4ED2"/>
<stop offset="0.87" stop-color="#4979F6"/>
</linearGradient>
<linearGradient id="paint3_linear_100_537" x1="25.0813" y1="20.5376" x2="15.903" y2="29.7322" gradientUnits="userSpaceOnUse">
<stop offset="0.22" stop-color="#4D29B4"/>
<stop offset="0.36" stop-color="#4C33BC"/>
<stop offset="0.58" stop-color="#4B4ED2"/>
<stop offset="0.87" stop-color="#4979F6"/>
</linearGradient>
</defs>
</svg>
