<?xml version="1.0" encoding="UTF-8"?>
<svg id="Layer_1" data-name="Layer 1" xmlns="http://www.w3.org/2000/svg" xmlns:xlink="http://www.w3.org/1999/xlink" viewBox="0 0 1776.54 425">
  <defs>
    <style>
      .cls-1 {
        fill: url(#linear-gradient-2);
      }

      .cls-1, .cls-2 {
        fill-rule: evenodd;
      }

      .cls-2 {
        fill: url(#linear-gradient-3);
      }

      .cls-3 {
        fill: url(#radial-gradient);
      }

      .cls-4 {
        fill: url(#linear-gradient);
      }

      .cls-5 {
        fill: #fff;
      }
    </style>
    <radialGradient id="radial-gradient" cx="-72.87" cy="753.2" fx="-72.87" fy="753.2" r="1" gradientTransform="translate(27892.58 286271.34) scale(379.8 -379.8)" gradientUnits="userSpaceOnUse">
      <stop offset=".07" stop-color="#1b58f4"/>
      <stop offset=".71" stop-color="#74ffe6"/>
    </radialGradient>
    <linearGradient id="linear-gradient" x1="467.55" y1="464.49" x2="137.29" y2="142.38" gradientTransform="translate(0 427) scale(1 -1)" gradientUnits="userSpaceOnUse">
      <stop offset=".32" stop-color="#4979f6"/>
      <stop offset=".99" stop-color="#4d33bd"/>
    </linearGradient>
    <linearGradient id="linear-gradient-2" x1="155.95" y1="338.25" x2="21.39" y2="203.68" gradientTransform="translate(0 427) scale(1 -1)" gradientUnits="userSpaceOnUse">
      <stop offset=".22" stop-color="#4d29b4"/>
      <stop offset=".36" stop-color="#4c33bc"/>
      <stop offset=".58" stop-color="#4b4ed2"/>
      <stop offset=".87" stop-color="#4979f6"/>
    </linearGradient>
    <linearGradient id="linear-gradient-3" x1="332.53" y1="154.23" x2="210.63" y2="32.33" gradientTransform="translate(0 427) scale(1 -1)" gradientUnits="userSpaceOnUse">
      <stop offset=".22" stop-color="#4d29b4"/>
      <stop offset=".36" stop-color="#4c33bc"/>
      <stop offset=".58" stop-color="#4b4ed2"/>
      <stop offset=".87" stop-color="#4979f6"/>
    </linearGradient>
  </defs>
  <path class="cls-5" d="M558.11,248.75h54.4v26.25h-87.51V109.92h33.11v138.83Z"/>
  <path class="cls-5" d="M650.58,268.74c-10.09-5.59-18.01-13.52-23.77-23.77s-8.63-22.07-8.63-35.48,2.96-25.22,8.87-35.47c5.91-10.25,13.99-18.17,24.24-23.77,10.25-5.59,21.68-8.4,34.29-8.4s24.04,2.8,34.29,8.4,18.33,13.52,24.24,23.77c5.91,10.25,8.87,22.08,8.87,35.47s-3.04,25.23-9.11,35.48-14.27,18.17-24.6,23.77c-10.33,5.6-21.88,8.4-34.65,8.4s-23.97-2.8-34.06-8.4h.02ZM701.55,243.9c5.28-2.92,9.5-7.29,12.65-13.13,3.15-5.83,4.73-12.93,4.73-21.29,0-12.45-3.27-22.03-9.81-28.73s-14.54-10.05-24-10.05-17.38,3.35-23.77,10.05c-6.39,6.7-9.58,16.28-9.58,28.73s3.11,22.04,9.34,28.74c6.23,6.7,14.07,10.05,23.53,10.05,5.99,0,11.63-1.46,16.91-4.38h0Z"/>
  <path class="cls-5" d="M774.74,173.9c5.52-10.17,13.16-18.05,22.94-23.65,9.77-5.59,20.97-8.4,33.58-8.4,16.24,0,29.68,4.06,40.32,12.18s17.77,19.51,21.4,34.17h-35.71c-1.89-5.68-5.08-10.13-9.58-13.36-4.49-3.23-10.05-4.85-16.67-4.85-9.46,0-16.95,3.43-22.47,10.29-5.52,6.86-8.28,16.59-8.28,29.21s2.76,22.11,8.28,28.97c5.52,6.86,13.01,10.29,22.47,10.29,13.4,0,22.15-5.99,26.25-17.97h35.71c-3.63,14.19-10.8,25.46-21.52,33.82-10.72,8.36-24.12,12.54-40.21,12.54-12.62,0-23.81-2.8-33.58-8.4-9.78-5.59-17.42-13.48-22.94-23.65-5.52-10.17-8.28-22.03-8.28-35.59s2.76-25.42,8.28-35.59h.01Z"/>
  <path class="cls-5" d="M909.66,173.78c5.28-10.25,12.45-18.13,21.52-23.65,9.06-5.52,19.19-8.28,30.39-8.28,9.77,0,18.33,1.97,25.66,5.91,7.33,3.94,13.2,8.91,17.62,14.9v-18.68h33.35v131.02h-33.35v-19.16c-4.26,6.15-10.13,11.23-17.62,15.25s-16.12,6.03-25.9,6.03c-11.04,0-21.09-2.84-30.15-8.51-9.07-5.68-16.24-13.68-21.52-24-5.28-10.32-7.92-22.19-7.92-35.59s2.64-24.99,7.92-35.24ZM1000.12,188.8c-3.16-5.75-7.41-10.17-12.77-13.24s-11.12-4.61-17.26-4.61-11.83,1.5-17.03,4.49c-5.2,3-9.42,7.37-12.65,13.13-3.23,5.76-4.85,12.58-4.85,20.46s1.62,14.78,4.85,20.69,7.49,10.45,12.77,13.6c5.28,3.16,10.92,4.73,16.91,4.73s11.9-1.54,17.26-4.61c5.36-3.08,9.61-7.49,12.77-13.24,3.15-5.75,4.73-12.65,4.73-20.69s-1.58-14.94-4.73-20.69v-.02Z"/>
  <path class="cls-5" d="M1101.34,99.99v175.01h-33.11V99.99h33.11Z"/>
  <path class="cls-5" d="M1157.51,270.75c-9.22-3.94-16.52-9.62-21.88-17.03s-8.12-16.16-8.28-26.25h35.47c.47,6.78,2.88,12.14,7.21,16.08,4.33,3.94,10.29,5.91,17.86,5.91s13.79-1.85,18.21-5.56c4.41-3.7,6.62-8.55,6.62-14.54,0-4.88-1.5-8.91-4.49-12.06-3-3.15-6.74-5.64-11.23-7.45s-10.68-3.82-18.57-6.03c-10.72-3.15-19.43-6.27-26.13-9.34-6.7-3.07-12.46-7.72-17.26-13.95-4.81-6.23-7.21-14.54-7.21-24.95,0-9.77,2.44-18.29,7.33-25.54,4.88-7.25,11.74-12.81,20.58-16.67,8.83-3.86,18.92-5.79,30.27-5.79,17.03,0,30.86,4.14,41.51,12.42,10.64,8.28,16.51,19.83,17.62,34.65h-36.42c-.32-5.68-2.72-10.37-7.21-14.07-4.49-3.7-10.45-5.56-17.86-5.56-6.47,0-11.63,1.66-15.49,4.97-3.87,3.31-5.79,8.12-5.79,14.43,0,4.42,1.46,8.08,4.38,11,2.92,2.92,6.54,5.29,10.88,7.1,4.33,1.81,10.44,3.9,18.33,6.27,10.72,3.16,19.47,6.31,26.25,9.46,6.78,3.16,12.61,7.89,17.5,14.19,4.88,6.31,7.33,14.58,7.33,24.83,0,8.83-2.29,17.03-6.86,24.6-4.58,7.57-11.27,13.6-20.1,18.09-8.83,4.49-19.32,6.74-31.45,6.74s-21.88-1.97-31.1-5.91l-.02-.04Z"/>
  <path class="cls-5" d="M1311.83,171.18v63.38c0,4.42,1.06,7.61,3.19,9.58,2.13,1.97,5.71,2.96,10.76,2.96h15.37v27.91h-20.81c-27.91,0-41.86-13.56-41.86-40.68v-63.15h-15.61v-27.2h15.61v-32.4h33.35v32.4h29.33v27.2h-29.33Z"/>
  <path class="cls-5" d="M1362.08,173.78c5.28-10.25,12.45-18.13,21.52-23.65,9.06-5.52,19.19-8.28,30.39-8.28,9.77,0,18.33,1.97,25.66,5.91,7.33,3.94,13.2,8.91,17.62,14.9v-18.68h33.35v131.02h-33.35v-19.16c-4.26,6.15-10.13,11.23-17.62,15.25s-16.12,6.03-25.9,6.03c-11.04,0-21.09-2.84-30.15-8.51-9.07-5.68-16.24-13.68-21.52-24-5.28-10.32-7.92-22.19-7.92-35.59s2.64-24.99,7.92-35.24ZM1452.54,188.8c-3.16-5.75-7.41-10.17-12.77-13.24s-11.12-4.61-17.26-4.61-11.83,1.5-17.03,4.49c-5.2,3-9.42,7.37-12.65,13.13-3.23,5.76-4.85,12.58-4.85,20.46s1.62,14.78,4.85,20.69c3.23,5.91,7.49,10.45,12.77,13.6,5.28,3.16,10.92,4.73,16.91,4.73s11.9-1.54,17.26-4.61c5.36-3.08,9.61-7.49,12.77-13.24,3.15-5.75,4.73-12.65,4.73-20.69s-1.58-14.94-4.73-20.69v-.02Z"/>
  <path class="cls-5" d="M1520.42,173.9c5.52-10.17,13.16-18.05,22.94-23.65,9.77-5.59,20.97-8.4,33.58-8.4,16.24,0,29.68,4.06,40.32,12.18s17.77,19.51,21.4,34.17h-35.71c-1.89-5.68-5.08-10.13-9.58-13.36-4.49-3.23-10.05-4.85-16.67-4.85-9.46,0-16.95,3.43-22.47,10.29-5.52,6.86-8.28,16.59-8.28,29.21s2.76,22.11,8.28,28.97c5.52,6.86,13.01,10.29,22.47,10.29,13.4,0,22.15-5.99,26.25-17.97h35.71c-3.63,14.19-10.8,25.46-21.52,33.82-10.72,8.36-24.12,12.54-40.21,12.54-12.62,0-23.81-2.8-33.58-8.4-9.78-5.59-17.42-13.48-22.94-23.65-5.52-10.17-8.28-22.03-8.28-35.59s2.76-25.42,8.28-35.59h.01Z"/>
  <path class="cls-5" d="M1733.5,275l-44.46-55.81v55.81h-33.11V99.99h33.11v99.57l43.99-55.58h43.04l-57.71,65.75,58.18,65.27h-43.04Z"/>
  <path class="cls-3" d="M419,0h-163c-3.31,0-6,2.69-6,6v163c0,3.31,2.69,6,6,6h163c3.31,0,6-2.69,6-6V6c0-3.31-2.69-6-6-6Z"/>
  <path class="cls-4" d="M156,275h213c3.31,0,6-2.69,6-6v-63c0-3.31-2.69-6-6-6h-138c-3.31,0-6-2.69-6-6V56c0-3.31-2.69-6-6-6h-63c-3.31,0-6,2.69-6,6v213c0,3.31,2.69,6,6,6Z"/>
  <path class="cls-1" d="M125,67.81v114.39c0,2.93-2.37,5.3-5.3,5.3H5.31c-4.72,0-7.09-5.71-3.75-9.05l114.39-114.39c3.34-3.34,9.05-.97,9.05,3.75Z"/>
  <path class="cls-2" d="M237.5,419.69v-114.39c0-2.93,2.37-5.3,5.3-5.3h114.39c4.72,0,7.09,5.71,3.75,9.05l-114.39,114.39c-3.34,3.34-9.05.97-9.05-3.75Z"/>
</svg>