<svg width="15" height="15" viewBox="0 0 15 15" fill="none" xmlns="http://www.w3.org/2000/svg">
<path fill-rule="evenodd" clip-rule="evenodd" d="M5.42236 10.9998C4.75586 10.4102 3.8125 10 2.5 10V8.75V1.875V0C4.57795 0 5.73064 1.02807 6.32431 2.16866C6.32425 2.16856 6.32431 2.16875 6.32431 2.16866C6.73044 2.94914 6.875 3.78255 6.875 4.375V10.7253V14.375C6.875 13.5215 6.57525 12.1684 5.625 11.1929C5.56049 11.1267 5.49298 11.0623 5.42236 10.9998ZM1.25 11.25H2.5C3.8426 11.25 4.56108 11.7814 4.98558 12.371C5.15591 12.6076 5.28673 12.8662 5.38431 13.125H0V12.5V2.5V1.875H0.625H1.25V10V11.25ZM14.375 1.875H15V2.5V12.5V13.125H9.375C8.68462 13.125 8.125 13.6846 8.125 14.375V4.375V2.49977C8.64731 2.10746 9.2965 1.875 10 1.875H14.375Z" fill="#707385"/>
</svg>
