<svg width="36" height="36" viewBox="0 0 36 36" fill="none" xmlns="http://www.w3.org/2000/svg">
<g clip-path="url(#clip0_41_569)">
<path fill-rule="evenodd" clip-rule="evenodd" d="M26.1765 10.4905L22.6671 2.78223L19.1569 10.4905L11.4489 14.0001L19.1569 17.5091L22.6671 25.2173L26.1765 17.5091L33.8845 14.0001L26.1765 10.4905Z" fill="#4D0DCF"/>
<path fill-rule="evenodd" clip-rule="evenodd" d="M9.63252 6.36743L8.00021 2.78223L6.36761 6.36742L2.78223 7.99994L6.36763 9.63215L8.00021 13.2173L9.63251 9.63213L13.2179 7.99994L9.63252 6.36743Z" fill="#AFBCFA"/>
<path fill-rule="evenodd" clip-rule="evenodd" d="M13.6386 22.3622L10.6669 17.4092L7.69491 22.3621L2.74187 25.3342L7.69494 28.3058L10.6669 33.2589L13.6386 28.3058L18.5916 25.3342L13.6386 22.3622Z" fill="#AFBCFA"/>
</g>
<defs>
<clipPath id="clip0_41_569">
<rect width="32" height="32" fill="white" transform="translate(2 2)"/>
</clipPath>
</defs>
</svg>
