<svg width="15" height="13" viewBox="0 0 15 13" fill="none" xmlns="http://www.w3.org/2000/svg">
<path fill-rule="evenodd" clip-rule="evenodd" d="M7.92247 0H8.51031V1.91049H13.3193H14.0541V10.4342H5.82434V8.96456H12.5845V3.38009H8.51031V5.29055H7.92247L5.27715 2.64529L7.92247 0ZM-0.0540771 2.64529C-0.0540771 1.34666 0.998666 0.293921 2.29729 0.293921C3.59592 0.293921 4.64866 1.34666 4.64866 2.64529C4.64866 3.94391 3.59592 4.99663 2.29729 4.99663C0.998666 4.99663 -0.0540771 3.94391 -0.0540771 2.64529ZM2.29729 7.348C0.998666 7.348 -0.0540771 8.40076 -0.0540771 9.69936C-0.0540771 10.998 0.998666 12.0507 2.29729 12.0507C3.59592 12.0507 4.64866 10.998 4.64866 9.69936C4.64866 8.40076 3.59592 7.348 2.29729 7.348Z" fill="#707385"/>
</svg>
