<svg width="36" height="36" viewBox="0 0 36 36" fill="none" xmlns="http://www.w3.org/2000/svg">
<path fill-rule="evenodd" clip-rule="evenodd" d="M16.9352 13.536L11.1517 23.4505L8.84831 22.1069L14.6318 12.1924L16.9352 13.536ZM21.3683 12.1924L27.1518 22.1069L24.8483 23.4505L19.0648 13.536L21.3683 12.1924ZM12.2313 27.9911H23.7531V25.3245H12.2313V27.9911Z" fill="#AFBCFA"/>
<path fill-rule="evenodd" clip-rule="evenodd" d="M18 3.33301C14.8345 3.33301 12.2684 5.89915 12.2684 9.06466C12.2684 12.2302 14.8345 14.7963 18 14.7963C21.1655 14.7963 23.7316 12.2302 23.7316 9.06466C23.7316 5.89915 21.1655 3.33301 18 3.33301ZM31.0233 21.6939C33.7648 23.2767 34.7041 26.7822 33.1213 29.5235C31.5385 32.265 28.0332 33.2042 25.2917 31.6215C22.5503 30.0387 21.6111 26.5333 23.1939 23.7919C24.7766 21.0505 28.282 20.1113 31.0233 21.6939ZM12.8063 23.7925C11.2235 21.051 7.7181 20.1118 4.9767 21.6945C2.23529 23.2773 1.29601 26.7827 2.87876 29.5241C4.46151 32.2655 7.96694 33.2047 10.7083 31.6221C13.4497 30.0393 14.389 26.5338 12.8063 23.7925Z" fill="#4D0DCF"/>
</svg>
