<svg width="15" height="15" viewBox="0 0 15 15" fill="none" xmlns="http://www.w3.org/2000/svg">
  <path fill-rule="evenodd" clip-rule="evenodd" d="M1 8C1 4.134 4.134 1 8 1C11.866 1 15 4.134 15 8C15 11.866 11.866 15 8 15C4.134 15 1 11.866 1 8ZM8.58333 5.08333V4.20833H7.41667V5.08333H6.83333C6.189 5.08333 5.66667 5.60567 5.66667 6.25V6.9612C5.66667 7.49658 6.03101 7.96319 6.55038 8.09304L9.16667 8.74713V9.75H6.83333V9.16667H5.66667V9.75C5.66667 10.3944 6.189 10.9167 6.83333 10.9167H7.41667V11.7917H8.58333V10.9167H9.16667C9.81102 10.9167 10.3333 10.3944 10.3333 9.75V8.74713C10.3333 8.21175 9.96898 7.74514 9.44964 7.61529L6.83333 6.9612V6.25H9.16667V6.83333H10.3333V6.25C10.3333 5.60567 9.81102 5.08333 9.16667 5.08333H8.58333Z" fill="#707385"/>
</svg>