<svg width="15" height="15" viewBox="0 0 15 15" fill="none" xmlns="http://www.w3.org/2000/svg">
<g clip-path="url(#clip0_99_476)">
<path fill-rule="evenodd" clip-rule="evenodd" d="M14.6429 2.14286C14.6429 3.32632 11.4449 4.28571 7.5 4.28571C3.55511 4.28571 0.357143 3.32632 0.357143 2.14286C0.357143 0.959393 3.55511 0 7.5 0C11.4449 0 14.6429 0.959393 14.6429 2.14286ZM15 3.82434C13.7099 4.94308 10.837 5.72159 7.5 5.72159C4.16302 5.72159 1.29014 4.94307 0 3.82433V7.14286C0 8.52357 3.35786 9.64286 7.5 9.64286C11.6421 9.64286 15 8.52357 15 7.14286V3.82434ZM7.5 11.0885C10.837 11.0885 13.7099 10.31 15 9.19129V12.5C15 13.8807 11.6421 15 7.5 15C3.35786 15 0 13.8807 0 12.5V9.19129C1.29014 10.31 4.16302 11.0885 7.5 11.0885Z" fill="#707385"/>
</g>
<defs>
<clipPath id="clip0_99_476">
<rect width="15" height="15" fill="white"/>
</clipPath>
</defs>
</svg>